<svg viewBox="0 0 32 32" enable-background="new 0 0 32 32" version="1.1" xml:space="preserve" xmlns="http://www.w3.org/2000/svg" xmlns:xlink="http://www.w3.org/1999/xlink" fill="#000000"><g id="SVGRepo_bgCarrier" stroke-width="0"></g><g id="SVGRepo_tracerCarrier" stroke-linecap="round" stroke-linejoin="round"></g><g id="SVGRepo_iconCarrier"> <g id="Desktop25"></g> <g id="Desktop24"></g> <g id="Desktop23"></g> <g id="Desktop22"></g> <g id="Desktop21"></g> <g id="Desktop20"></g> <g id="Desktop19"></g> <g id="Desktop18"></g> <g id="Desktop17"></g> <g id="Desktop16"></g> <g id="Desktop15"></g> <g id="Desktop14"></g> <g id="Desktop13"></g> <g id="Desktop12"></g> <g id="Desktop11"></g> <g id="Desktop10"></g> <g id="Desktop09"> <g> <path d="M27,4v24c0,1.65-1.35,3-3,3H8c-1.65,0-3-1.35-3-3V4c0-1.65,1.35-3,3-3h16C25.65,1,27,2.35,27,4z" fill="#707070"></path> </g> <g> <path d="M23,6v16c0,0.55-0.45,1-1,1H10c-0.55,0-1-0.45-1-1V6c0-0.55,0.45-1,1-1h12C22.55,5,23,5.45,23,6z" fill="#a83df0"></path> </g> <g> <circle cx="16" cy="26" fill="#c7c7c7" r="2"></circle> </g> </g> <g id="Desktop08"></g> <g id="Desktop07"></g> <g id="Desktop06"></g> <g id="Desktop05"></g> <g id="Desktop04"></g> <g id="Desktop03"></g> <g id="Desktop02"></g> <g id="Desktop01"></g> </g></svg>